<svg xmlns="http://www.w3.org/2000/svg" viewBox="0 0 672 200" width="672" height="200" role="img" aria-label="BusanNomads logo lockup">
  <g transform="translate(6,4) scale(0.78)">
    <path fill="#15293D" fill-rule="evenodd" d="M120,216 C84,168 46,134 46,92 A74,74 0 1 1 194,92 C194,134 156,168 120,216 Z M60,96 C73,78 87,78 100,96 C113,114 127,114 140,96 C153,78 167,78 180,96 L180,122 C167,104 153,104 140,122 C127,140 113,140 100,122 C87,104 73,104 60,122 Z"></path>
  </g>
  <text x="186" y="125" font-family="&#39;Helvetica Neue&#39;, Helvetica, Arial, sans-serif" font-size="72" letter-spacing="-1.6" fill="#15293D"><tspan font-weight="700">Busan</tspan><tspan font-weight="400">Nomads</tspan></text>
</svg>